<svg width="51" height="51" viewBox="0 0 51 51" fill="none" xmlns="http://www.w3.org/2000/svg">
<path d="M22.3773 13.6211L15.6391 2.39062C15.1508 1.51172 14.0766 0.828125 13.0023 0.828125H2.1625C0.892969 0.828125 0.111719 2.29297 0.795313 3.36719L11.7328 18.8945C14.5648 16.1602 18.2758 14.3047 22.3773 13.6211ZM48.9398 0.828125H38.1C37.0258 0.828125 36.0492 1.41406 35.4633 2.39062L28.725 13.6211C32.8266 14.3047 36.5375 16.1602 39.3695 18.8945L50.307 3.36719C50.9906 2.29297 50.2094 0.828125 48.9398 0.828125ZM25.6 16.4531C16.0297 16.4531 8.4125 24.168 8.4125 33.6406C8.4125 43.2109 16.0297 50.8281 25.6 50.8281C35.0727 50.8281 42.7875 43.2109 42.7875 33.6406C42.7875 24.168 35.0727 16.4531 25.6 16.4531ZM34.5844 31.8828L30.8734 35.4961L31.7523 40.5742C31.9477 41.4531 30.9711 42.1367 30.0922 41.7461L25.6 39.3047L21.0102 41.7461C20.1313 42.1367 19.1547 41.4531 19.35 40.5742L20.2289 35.4961L16.518 31.8828C15.8344 31.1992 16.225 30.125 17.1039 29.9297L22.2797 29.2461L24.5258 24.5586C24.7211 24.168 25.1117 23.9727 25.5023 23.9727C25.9906 23.9727 26.3813 24.168 26.5766 24.5586L28.8227 29.2461L33.9984 29.9297C34.8773 30.125 35.268 31.1992 34.5844 31.8828Z" fill="black"/>
</svg>
