<svg width="16" height="17" viewBox="0 0 16 17" fill="none" xmlns="http://www.w3.org/2000/svg">
<path d="M8.1 4.73828C5.85 4.73828 4.05703 6.56641 4.05703 8.78125C4.05703 11.0312 5.85 12.8242 8.1 12.8242C10.3148 12.8242 12.143 11.0312 12.143 8.78125C12.143 6.56641 10.3148 4.73828 8.1 4.73828ZM8.1 11.418C6.65859 11.418 5.46328 10.2578 5.46328 8.78125C5.46328 7.33984 6.62344 6.17969 8.1 6.17969C9.54141 6.17969 10.7016 7.33984 10.7016 8.78125C10.7016 10.2578 9.54141 11.418 8.1 11.418ZM13.2328 4.59766C13.2328 4.07031 12.8109 3.64844 12.2836 3.64844C11.7562 3.64844 11.3344 4.07031 11.3344 4.59766C11.3344 5.125 11.7562 5.54688 12.2836 5.54688C12.8109 5.54688 13.2328 5.125 13.2328 4.59766ZM15.9047 5.54688C15.8344 4.28125 15.5531 3.15625 14.6391 2.24219C13.725 1.32812 12.6 1.04688 11.3344 0.976562C10.0336 0.90625 6.13125 0.90625 4.83047 0.976562C3.56484 1.04688 2.475 1.32812 1.52578 2.24219C0.611719 3.15625 0.330469 4.28125 0.260156 5.54688C0.189844 6.84766 0.189844 10.75 0.260156 12.0508C0.330469 13.3164 0.611719 14.4062 1.52578 15.3555C2.475 16.2695 3.56484 16.5508 4.83047 16.6211C6.13125 16.6914 10.0336 16.6914 11.3344 16.6211C12.6 16.5508 13.725 16.2695 14.6391 15.3555C15.5531 14.4062 15.8344 13.3164 15.9047 12.0508C15.975 10.75 15.975 6.84766 15.9047 5.54688ZM14.2172 13.4219C13.9711 14.125 13.4086 14.6523 12.7406 14.9336C11.6859 15.3555 9.225 15.25 8.1 15.25C6.93984 15.25 4.47891 15.3555 3.45937 14.9336C2.75625 14.6523 2.22891 14.125 1.94766 13.4219C1.52578 12.4023 1.63125 9.94141 1.63125 8.78125C1.63125 7.65625 1.52578 5.19531 1.94766 4.14062C2.22891 3.47266 2.75625 2.94531 3.45937 2.66406C4.47891 2.24219 6.93984 2.34766 8.1 2.34766C9.225 2.34766 11.6859 2.24219 12.7406 2.66406C13.4086 2.91016 13.9359 3.47266 14.2172 4.14062C14.6391 5.19531 14.5336 7.65625 14.5336 8.78125C14.5336 9.94141 14.6391 12.4023 14.2172 13.4219Z" fill="#B4B4B4"/>
</svg>
